<?xml version="1.0" encoding="UTF-8"?>
<svg version="1.1" xmlns="http://www.w3.org/2000/svg" width="120" height="119">
<path d="M0 0 C39.6 0 79.2 0 120 0 C120 39.27 120 78.54 120 119 C80.4 119 40.8 119 0 119 C0 79.73 0 40.46 0 0 Z " fill="#040404" transform="translate(0,0)"/>
<path d="M0 0 C0 1.32 0 2.64 0 4 C0.99 4 1.98 4 3 4 C3.33 2.35 3.66 0.7 4 -1 C4.99 -1 5.98 -1 7 -1 C7.495 -0.01 7.495 -0.01 8 1 C9.32 1 10.64 1 12 1 C14.00401011 1.30830925 16.00511766 1.63729412 18 2 C17.67 3.98 17.34 5.96 17 8 C17.99 8.33 18.98 8.66 20 9 C20 9.66 20 10.32 20 11 C21.98 11 23.96 11 26 11 C22.35053745 14.64946255 16.84231162 15.4754604 12 17 C11.08605469 17.30550781 10.17210938 17.61101563 9.23046875 17.92578125 C8.39128906 18.19777344 7.55210938 18.46976563 6.6875 18.75 C5.57955078 19.11351562 5.57955078 19.11351562 4.44921875 19.484375 C2 20 2 20 -1.15234375 19.88671875 C-6.2070228 20.03553671 -10.47526629 21.48837361 -15.25 23.0625 C-17.0234328 23.64472614 -18.79939563 24.21931794 -20.578125 24.78515625 C-21.35575195 25.04176025 -22.13337891 25.29836426 -22.93457031 25.56274414 C-25 26 -25 26 -28 25 C-24.535 23.02 -24.535 23.02 -21 21 C-21.99 20.34 -22.98 19.68 -24 19 C-18.62831608 14.47724705 -13.75838794 11.85289137 -7 10 C-6.01 9.67 -5.02 9.34 -4 9 C-1.60745424 8.77439324 0.78928123 8.59151405 3.1875 8.4375 C5.09595703 8.31181641 5.09595703 8.31181641 7.04296875 8.18359375 C8.01878906 8.12300781 8.99460937 8.06242187 10 8 C-2.66363931 7.14945706 -12.40905967 7.34303638 -23 15 C-25.02159134 17.06101954 -26.79013535 19.1633477 -28.54296875 21.453125 C-30 23 -30 23 -33.3125 23.6875 C-36 23 -36 23 -38 20 C-36.68 20.33 -35.36 20.66 -34 21 C-34.66 19.35 -35.32 17.7 -36 16 C-35.34 16 -34.68 16 -34 16 C-33.67 15.01 -33.34 14.02 -33 13 C-32.34 13 -31.68 13 -31 13 C-31 12.01 -31 11.02 -31 10 C-35.77394547 15.12532725 -39.88361344 19.98969946 -43.08984375 26.25 C-45 28 -45 28 -54 29 C-54 36.26 -54 43.52 -54 51 C-52.83861276 49.90398481 -52.83861276 49.90398481 -51.625 47.9375 C-50.820625 46.9784375 -50.820625 46.9784375 -50 46 C-49.01 46 -48.02 46 -47 46 C-47 41.71 -47 37.42 -47 33 C-47.99 33 -48.98 33 -50 33 C-50.04898438 33.85464844 -50.09796875 34.70929687 -50.1484375 35.58984375 C-50.22320312 36.69457031 -50.29796875 37.79929688 -50.375 38.9375 C-50.44460937 40.03964844 -50.51421875 41.14179687 -50.5859375 42.27734375 C-50.72257812 43.17582031 -50.85921875 44.07429688 -51 45 C-51.99 45.495 -51.99 45.495 -53 46 C-52.94014621 43.70759993 -52.85140973 41.41593794 -52.75 39.125 C-52.70359375 37.84882812 -52.6571875 36.57265625 -52.609375 35.2578125 C-52 32 -52 32 -50.23046875 30.53125 C-47.76676717 29.94444892 -46.05905045 29.98559005 -43.5625 30.375 C-40.33483419 30.8277254 -37.26818391 31.10542529 -34 31 C-33.67 31.99 -33.34 32.98 -33 34 C-32.67 32.68 -32.34 31.36 -32 30 C-27.10968128 30.85472385 -24.60997932 33.73713408 -21 37 C-21 34.03 -21 31.06 -21 28 C-12.03246811 25.76556514 -3.16307654 24.1677084 6 23 C6.495 24.485 6.495 24.485 7 26 C7.33 24.68 7.66 23.36 8 22 C8.99 22 9.98 22 11 22 C11.495 25.465 11.495 25.465 12 29 C12.99 26.36 13.98 23.72 15 21 C17.31 20.67 19.62 20.34 22 20 C22.99 24.29 23.98 28.58 25 33 C25.66 28.38 26.32 23.76 27 19 C28.65 19 30.3 19 32 19 C31.67 23.62 31.34 28.24 31 33 C35.95 32.505 35.95 32.505 41 32 C39 36 39 36 36.171875 37.046875 C35.04265625 37.27890625 33.9134375 37.5109375 32.75 37.75 C31.63109375 37.99234375 30.5121875 38.2346875 29.359375 38.484375 C26.1746752 38.97318939 23.21519233 39.09743007 20 39 C20 38.01 20 37.02 20 36 C18.02 36.33 16.04 36.66 14 37 C13.67 38.32 13.34 39.64 13 41 C12.34 41 11.68 41 11 41 C11 41.66 11 42.32 11 43 C11.969375 43.309375 12.93875 43.61875 13.9375 43.9375 C17 45 17 45 18 46 C17.85591524 47.58787288 17.65938429 49.1711181 17.4375 50.75 C16.97937947 54.74710163 16.95800489 57.39647921 19 61 C17.35 61 15.7 61 14 61 C13.01 58.525 13.01 58.525 12 56 C10.68 56 9.36 56 8 56 C8 57.98 8 59.96 8 62 C3.25 63 3.25 63 1 63 C-0.11375 63.495 -0.11375 63.495 -1.25 64 C-4.33065396 65.1202378 -6.74750835 65.15127868 -10 65 C-10.66 62.69 -11.32 60.38 -12 58 C-12.66 58.99 -13.32 59.98 -14 61 C-17.625 61.6875 -17.625 61.6875 -21 62 C-21 63.98 -21 65.96 -21 68 C-22.32 68 -23.64 68 -25 68 C-25 64.04 -25 60.08 -25 56 C-29.455 56.495 -29.455 56.495 -34 57 C-34 57.99 -34 58.98 -34 60 C-33.030625 59.979375 -32.06125 59.95875 -31.0625 59.9375 C-28 60 -28 60 -27 61 C-26.5353721 66.3432209 -26.5353721 66.3432209 -28.15234375 68.62890625 C-30.65263884 70.48430493 -32.73877506 70.66426897 -35.8125 71.0625 C-40.09204395 71.67755523 -43.92060431 72.53560155 -48 74 C-48.99 74 -49.98 74 -51 74 C-51.33 72.68 -51.66 71.36 -52 70 C-52.33 72.64 -52.66 75.28 -53 78 C-51.02 78 -49.04 78 -47 78 C-50.08809695 79.76462683 -51.23312136 80 -55 80 C-55.33 76.7 -55.66 73.4 -56 70 C-56.66 74.29 -57.32 78.58 -58 83 C-55.79570313 82.54947266 -55.79570313 82.54947266 -53.546875 82.08984375 C-51.61467283 81.70527924 -49.68237615 81.32118937 -47.75 80.9375 C-46.78191406 80.73833984 -45.81382813 80.53917969 -44.81640625 80.33398438 C-43.88183594 80.15029297 -42.94726562 79.96660156 -41.984375 79.77734375 C-41.12553711 79.60452881 -40.26669922 79.43171387 -39.38183594 79.25366211 C-36.94790649 78.99445212 -35.31101537 79.24915391 -33 80 C-33.66 80 -34.32 80 -35 80 C-33.35 82.31 -31.7 84.62 -30 87 C-32.46800047 85.84826645 -34.04783565 84.95216435 -36 83 C-40.79548871 82.60853153 -44.9106386 83.30954831 -49.49609375 84.5625 C-53.02662269 85.17937869 -56.41728215 85.06027706 -60 85 C-59.9278125 83.70707031 -59.855625 82.41414063 -59.78125 81.08203125 C-59.29801498 72.11888452 -58.87997068 63.21644234 -59.0625 54.23828125 C-59 52 -59 52 -58 51 C-57.80902619 49.39167168 -57.67664271 47.77628894 -57.5703125 46.16015625 C-57.49683594 45.17982422 -57.42335937 44.19949219 -57.34765625 43.18945312 C-57.19953394 41.10924423 -57.05887523 39.02849008 -56.92578125 36.94726562 C-56.84972656 35.96564453 -56.77367187 34.98402344 -56.6953125 33.97265625 C-56.63359863 33.06781494 -56.57188477 32.16297363 -56.50830078 31.23071289 C-56 29 -56 29 -53 27 C-50.95703125 26.5859375 -50.95703125 26.5859375 -48.8125 26.375 C-47.554375 26.25125 -46.29625 26.1275 -45 26 C-44.79375 25.34 -44.5875 24.68 -44.375 24 C-40.56964759 15.69741292 -33.56563818 8.04375879 -26 3 C-25.01 3 -24.02 3 -23 3 C-23 3.66 -23 4.32 -23 5 C-21.35 4.67 -19.7 4.34 -18 4 C-17.505 5.98 -17.505 5.98 -17 8 C-15.68 7.34 -14.36 6.68 -13 6 C-13.66 4.68 -14.32 3.36 -15 2 C-10.08781092 -0.23281322 -5.24098771 -1.7469959 0 0 Z " fill="#0F1112" transform="translate(60,12)"/>
<path d="M0 0 C-0.96355353 15.74487472 -0.96355353 15.74487472 -2 23 C-2.66 23 -3.32 23 -4 23 C-4.03738281 23.83144531 -4.07476562 24.66289063 -4.11328125 25.51953125 C-4.17902344 26.60621094 -4.24476562 27.69289063 -4.3125 28.8125 C-4.37050781 29.89144531 -4.42851563 30.97039062 -4.48828125 32.08203125 C-5 35 -5 35 -6.23046875 36.78125 C-8.42071572 38.28976447 -10.44147782 38.96791564 -13 39.6875 C-13.86625 39.93886719 -14.7325 40.19023438 -15.625 40.44921875 C-18 41 -18 41 -21 41 C-20.65213292 42.97536745 -20.65213292 42.97536745 -20 45 C-19.01 45.495 -19.01 45.495 -18 46 C-18.75 47.9375 -18.75 47.9375 -20 50 C-22.125 50.75 -22.125 50.75 -24 51 C-24 50.34 -24 49.68 -24 49 C-24.66 49 -25.32 49 -26 49 C-25.34 50.32 -24.68 51.64 -24 53 C-26.66666667 54.33333333 -29.33333333 55.66666667 -32 57 C-32.495 54.03 -32.495 54.03 -33 51 C-33.99 51.33 -34.98 51.66 -36 52 C-37.33106622 52.34227417 -38.66400079 52.67751743 -40 53 C-40 53.66 -40 54.32 -40 55 C-38.68 55 -37.36 55 -36 55 C-36 55.99 -36 56.98 -36 58 C-35.34 58 -34.68 58 -34 58 C-34 58.66 -34 59.32 -34 60 C-34.7425 60.144375 -35.485 60.28875 -36.25 60.4375 C-38.52027739 60.90187492 -40.75759479 61.41863569 -43 62 C-43.495 59.525 -43.495 59.525 -44 57 C-43.34 57 -42.68 57 -42 57 C-42 56.34 -42 55.68 -42 55 C-44.97 55.66 -47.94 56.32 -51 57 C-49.68 57.33 -48.36 57.66 -47 58 C-47 59.65 -47 61.3 -47 63 C-47.66 62.34 -48.32 61.68 -49 61 C-49.66 61.99 -50.32 62.98 -51 64 C-57.33279023 65.08341014 -65.48545291 64.30872825 -71 61 C-71 59.68 -71 58.36 -71 57 C-70.195625 57.2784375 -70.195625 57.2784375 -69.375 57.5625 C-66.38009386 58.11419324 -63.96254171 57.60597444 -61 57 C-64.63 56.34 -68.26 55.68 -72 55 C-72 53.68 -72 52.36 -72 51 C-67.63560059 46.63560059 -61.26010052 45.75364214 -55.40625 44.66796875 C-53.5039563 44.30952881 -53.5039563 44.30952881 -51.56323242 43.94384766 C-50.56747696 43.75861542 -50.56747696 43.75861542 -49.55160522 43.56964111 C-38.11843277 41.44004756 -26.74697108 39.14455696 -15.42578125 36.47338867 C-14.59820312 36.27849854 -13.770625 36.0836084 -12.91796875 35.8828125 C-12.20406982 35.71152832 -11.4901709 35.54024414 -10.75463867 35.36376953 C-9 35 -9 35 -7 35 C-7.01160156 34.41992188 -7.02320312 33.83984375 -7.03515625 33.2421875 C-7.08762174 28.7001754 -6.91751063 24.47286431 -6 20 C-5.01 20 -4.02 20 -3 20 C-3.01160156 19.3709375 -3.02320312 18.741875 -3.03515625 18.09375 C-3.09286873 12.61930912 -2.80228473 7.41542194 -2 2 C-6.455 2.495 -6.455 2.495 -11 3 C-7.75987532 -0.24012468 -4.46544827 0 0 0 Z " fill="#2B5D80" transform="translate(117,44)"/>
<path d="M0 0 C0 1.32 0 2.64 0 4 C0.99 4 1.98 4 3 4 C3.33 2.35 3.66 0.7 4 -1 C4.99 -1 5.98 -1 7 -1 C7.495 -0.01 7.495 -0.01 8 1 C9.32 1 10.64 1 12 1 C14.00401011 1.30830925 16.00511766 1.63729412 18 2 C17.67 3.98 17.34 5.96 17 8 C17.99 8.33 18.98 8.66 20 9 C20 9.66 20 10.32 20 11 C21.98 11 23.96 11 26 11 C22.35053745 14.64946255 16.84231162 15.4754604 12 17 C11.08605469 17.30550781 10.17210937 17.61101563 9.23046875 17.92578125 C8.39128906 18.19777344 7.55210938 18.46976563 6.6875 18.75 C5.57955078 19.11351562 5.57955078 19.11351562 4.44921875 19.484375 C2 20 2 20 -1.15234375 19.88671875 C-6.2070228 20.03553671 -10.47526629 21.48837361 -15.25 23.0625 C-17.0234328 23.64472614 -18.79939563 24.21931794 -20.578125 24.78515625 C-21.74456543 25.17006226 -21.74456543 25.17006226 -22.93457031 25.56274414 C-25 26 -25 26 -28 25 C-25.69 23.68 -23.38 22.36 -21 21 C-21.99 20.34 -22.98 19.68 -24 19 C-18.62831608 14.47724705 -13.75838794 11.85289137 -7 10 C-6.01 9.67 -5.02 9.34 -4 9 C-1.60745424 8.77439324 0.78928123 8.59151405 3.1875 8.4375 C4.45980469 8.35371094 5.73210937 8.26992188 7.04296875 8.18359375 C8.01878906 8.12300781 8.99460938 8.06242187 10 8 C-2.66363931 7.14945706 -12.40905967 7.34303638 -23 15 C-25.02159134 17.06101954 -26.79013535 19.1633477 -28.54296875 21.453125 C-30 23 -30 23 -33.3125 23.6875 C-36 23 -36 23 -38 20 C-36.68 20.33 -35.36 20.66 -34 21 C-34.66 19.35 -35.32 17.7 -36 16 C-35.34 16 -34.68 16 -34 16 C-33.67 15.01 -33.34 14.02 -33 13 C-32.34 13 -31.68 13 -31 13 C-30.5978125 11.6078125 -30.5978125 11.6078125 -30.1875 10.1875 C-29.07632183 7.20486385 -28.47545451 5.88134543 -26 4 C-25.01 3.67 -24.02 3.34 -23 3 C-23 3.66 -23 4.32 -23 5 C-21.35 4.67 -19.7 4.34 -18 4 C-17.67 5.32 -17.34 6.64 -17 8 C-15.68 7.34 -14.36 6.68 -13 6 C-13.66 4.68 -14.32 3.36 -15 2 C-10.08781092 -0.23281322 -5.24098771 -1.7469959 0 0 Z " fill="#261A16" transform="translate(60,12)"/>
<path d="M0 0 C1.65 0 3.3 0 5 0 C5.12086218 6.43255401 4.82351864 12.61773055 4 19 C-0.83256305 18.58578031 -2.82679218 16.53586014 -6 13 C-6.33 15.64 -6.66 18.28 -7 21 C-8.093125 21.12375 -9.18625 21.2475 -10.3125 21.375 C-14.07381802 21.75464801 -14.07381802 21.75464801 -17 24 C-19.3046875 24.34375 -19.3046875 24.34375 -21.875 24.5 C-27.19021188 24.88628725 -27.19021188 24.88628725 -32 27 C-32.89386164 29.54775306 -32.89386164 29.54775306 -33 32 C-33.33 32 -33.66 32 -34 32 C-34 30.02 -34 28.04 -34 26 C-32.68 25.67 -31.36 25.34 -30 25 C-30 23.02 -30 21.04 -30 19 C-28.68 18.67 -27.36 18.34 -26 18 C-26 13.71 -26 9.42 -26 5 C-26.99 5 -27.98 5 -29 5 C-29.04898437 5.85464844 -29.09796875 6.70929687 -29.1484375 7.58984375 C-29.22320313 8.69457031 -29.29796875 9.79929687 -29.375 10.9375 C-29.44460937 12.03964844 -29.51421875 13.14179687 -29.5859375 14.27734375 C-29.72257812 15.17582031 -29.85921875 16.07429688 -30 17 C-30.66 17.33 -31.32 17.66 -32 18 C-31.94014621 15.70759993 -31.85140973 13.41593794 -31.75 11.125 C-31.70359375 9.84882812 -31.6571875 8.57265625 -31.609375 7.2578125 C-31 4 -31 4 -29.23046875 2.53125 C-26.76676717 1.94444892 -25.05905045 1.98559005 -22.5625 2.375 C-19.33483419 2.8277254 -16.26818391 3.10542529 -13 3 C-12.67 3.99 -12.34 4.98 -12 6 C-11.67 4.68 -11.34 3.36 -11 2 C-6.10968128 2.85472385 -3.60997932 5.73713408 0 9 C0 6.03 0 3.06 0 0 Z " fill="#242A2E" transform="translate(39,40)"/>
<path d="M0 0 C-0.11371497 2.29225435 -0.24130964 4.58382388 -0.375 6.875 C-0.44460937 8.15117188 -0.51421875 9.42734375 -0.5859375 10.7421875 C-1 14 -1 14 -3 16 C-5.3828125 16.4140625 -5.3828125 16.4140625 -8.125 16.625 C-9.03507812 16.69976562 -9.94515625 16.77453125 -10.8828125 16.8515625 C-11.58148438 16.90054688 -12.28015625 16.94953125 -13 17 C-13.66 14.69 -14.32 12.38 -15 10 C-15.99 11.485 -15.99 11.485 -17 13 C-20.625 13.6875 -20.625 13.6875 -24 14 C-24 15.98 -24 17.96 -24 20 C-25.32 20 -26.64 20 -28 20 C-28 16.04 -28 12.08 -28 8 C-31.96 8.66 -35.92 9.32 -40 10 C-39.67 8.68 -39.34 7.36 -39 6 C-35.98351121 5.29243969 -32.9613839 4.61269294 -29.9375 3.9375 C-28.66616211 3.63875977 -28.66616211 3.63875977 -27.36914062 3.33398438 C-22.12847602 2.18063348 -18.2611253 2.06514375 -13 3 C-10.84659471 1.67662714 -10.84659471 1.67662714 -9 0 C-5.55183317 -1.03445005 -3.41815788 -0.95592551 0 0 Z " fill="#4BA0CE" transform="translate(63,60)"/>
<path d="M0 0 C1.65 0 3.3 0 5 0 C4.67 4.62 4.34 9.24 4 14 C7.3 13.67 10.6 13.34 14 13 C12 17 12 17 9.171875 18.046875 C8.04265625 18.27890625 6.9134375 18.5109375 5.75 18.75 C4.07164063 19.11351562 4.07164063 19.11351562 2.359375 19.484375 C-0.8253248 19.97318939 -3.78480767 20.09743007 -7 20 C-7 19.01 -7 18.02 -7 17 C-8.98 17.33 -10.96 17.66 -13 18 C-13.33 19.32 -13.66 20.64 -14 22 C-15.98 22.33 -17.96 22.66 -20 23 C-20.02703562 20.41659616 -20.04685611 17.83347692 -20.0625 15.25 C-20.07087891 14.52039062 -20.07925781 13.79078125 -20.08789062 13.0390625 C-20.10391684 9.51329442 -19.95292713 6.38965084 -19 3 C-18.01 3 -17.02 3 -16 3 C-15.67 5.31 -15.34 7.62 -15 10 C-14.01 7.36 -13.02 4.72 -12 2 C-8.535 1.505 -8.535 1.505 -5 1 C-4.01 5.29 -3.02 9.58 -2 14 C-1.34 9.38 -0.68 4.76 0 0 Z " fill="#E6E7E7" transform="translate(87,31)"/>
<path d="M0 0 C-0.96355353 15.74487472 -0.96355353 15.74487472 -2 23 C-2.66 23 -3.32 23 -4 23 C-4.03738281 23.83144531 -4.07476562 24.66289063 -4.11328125 25.51953125 C-4.17902344 26.60621094 -4.24476562 27.69289063 -4.3125 28.8125 C-4.37050781 29.89144531 -4.42851563 30.97039062 -4.48828125 32.08203125 C-5 35 -5 35 -6.08203125 36.73828125 C-8.96316239 38.63360785 -12.08438215 39.46878954 -15.375 40.375 C-16.47775269 40.68981323 -16.47775269 40.68981323 -17.6027832 41.01098633 C-24.63930095 42.98115273 -31.74440139 44.67126367 -38.86669922 46.30029297 C-43.34188567 47.32894348 -47.66021277 48.48194358 -52 50 C-54.8663365 50.92490883 -57.74394499 51.80967855 -60.625 52.6875 C-61.37523437 52.92533203 -62.12546875 53.16316406 -62.8984375 53.40820312 C-63.62546875 53.62798828 -64.3525 53.84777344 -65.1015625 54.07421875 C-66.08116943 54.37718872 -66.08116943 54.37718872 -67.08056641 54.6862793 C-69.32450177 55.053038 -70.85057227 54.6827137 -73 54 C-71.83135389 50.49406168 -71.07486501 49.91140257 -68 48 C-63.84584327 46.46965795 -59.75480888 45.47446605 -55.40625 44.66796875 C-53.5039563 44.30952881 -53.5039563 44.30952881 -51.56323242 43.94384766 C-50.56747696 43.75861542 -50.56747696 43.75861542 -49.55160522 43.56964111 C-38.11843277 41.44004756 -26.74697108 39.14455696 -15.42578125 36.47338867 C-14.59820312 36.27849854 -13.770625 36.0836084 -12.91796875 35.8828125 C-12.20406982 35.71152832 -11.4901709 35.54024414 -10.75463867 35.36376953 C-9 35 -9 35 -7 35 C-7.01160156 34.41992188 -7.02320312 33.83984375 -7.03515625 33.2421875 C-7.08762174 28.7001754 -6.91751063 24.47286431 -6 20 C-5.01 20 -4.02 20 -3 20 C-3.01160156 19.3709375 -3.02320312 18.741875 -3.03515625 18.09375 C-3.09286873 12.61930912 -2.80228473 7.41542194 -2 2 C-6.455 2.495 -6.455 2.495 -11 3 C-7.75987532 -0.24012468 -4.46544827 0 0 0 Z " fill="#A46D47" transform="translate(117,44)"/>
<path d="M0 0 C0.33 0.66 0.66 1.32 1 2 C1.99 2.33 2.98 2.66 4 3 C4 3.66 4 4.32 4 5 C4.969375 4.979375 5.93875 4.95875 6.9375 4.9375 C10 5 10 5 11 6 C11.4638763 11.33457745 11.4638763 11.33457745 9.8671875 13.625 C7.28800613 15.52431348 5.03135808 15.70668748 1.875 16.125 C-1.87922063 16.34096333 -1.87922063 16.34096333 -5 18 C-7.31 18 -9.62 18 -12 18 C-12 12.72 -12 7.44 -12 2 C-10.7625 1.67 -9.525 1.34 -8.25 1 C-7.55390625 0.814375 -6.8578125 0.62875 -6.140625 0.4375 C-4 0 -4 0 0 0 Z " fill="#499BC9" transform="translate(22,67)"/>
<path d="M0 0 C0 1.32 0 2.64 0 4 C0.99 4 1.98 4 3 4 C3.33 3.01 3.66 2.02 4 1 C4 1.99 4 2.98 4 4 C4.62648437 4.04898437 5.25296875 4.09796875 5.8984375 4.1484375 C6.71570313 4.22320313 7.53296875 4.29796875 8.375 4.375 C9.59316406 4.47941406 9.59316406 4.47941406 10.8359375 4.5859375 C13 5 13 5 15 7 C14.01 6.835 13.02 6.67 12 6.5 C5.05119475 5.60622251 -2.00882501 5.92364008 -9 6 C-9 6.66 -9 7.32 -9 8 C-10.39412109 8.61875 -10.39412109 8.61875 -11.81640625 9.25 C-18.81933574 12.48175732 -23.76582256 15.21259985 -28.54296875 21.453125 C-30 23 -30 23 -33.3125 23.6875 C-36 23 -36 23 -38 20 C-36.68 20.33 -35.36 20.66 -34 21 C-34.66 19.35 -35.32 17.7 -36 16 C-35.34 16 -34.68 16 -34 16 C-33.67 15.01 -33.34 14.02 -33 13 C-32.34 13 -31.68 13 -31 13 C-30.5978125 11.6078125 -30.5978125 11.6078125 -30.1875 10.1875 C-29.07632183 7.20486385 -28.47545451 5.88134543 -26 4 C-25.01 3.67 -24.02 3.34 -23 3 C-23 3.66 -23 4.32 -23 5 C-21.35 4.67 -19.7 4.34 -18 4 C-17.67 5.32 -17.34 6.64 -17 8 C-15.68 7.34 -14.36 6.68 -13 6 C-13.66 4.68 -14.32 3.36 -15 2 C-10.08781092 -0.23281322 -5.24098771 -1.7469959 0 0 Z " fill="#3D4144" transform="translate(60,12)"/>
<path d="M0 0 C0 0.99 0 1.98 0 3 C-2.5654594 5.5654594 -4.47686668 5.54046087 -8 6 C-8 6.66 -8 7.32 -8 8 C-7.030625 7.979375 -6.06125 7.95875 -5.0625 7.9375 C-2 8 -2 8 -1 9 C-0.53478658 14.34995431 -0.53478658 14.34995431 -2.16015625 16.62109375 C-4.60624465 18.4543617 -6.68083419 18.72765699 -9.6875 19.1875 C-10.68136719 19.34605469 -11.67523438 19.50460938 -12.69921875 19.66796875 C-13.45847656 19.77753906 -14.21773437 19.88710937 -15 20 C-14.34 18.35 -13.68 16.7 -13 15 C-10.36 14.67 -7.72 14.34 -5 14 C-5 13.34 -5 12.68 -5 12 C-6.98 12 -8.96 12 -11 12 C-11.66 10.68 -12.32 9.36 -13 8 C-14.32 8 -15.64 8 -17 8 C-17.33 12.29 -17.66 16.58 -18 21 C-19.32 21 -20.64 21 -22 21 C-22 17.04 -22 13.08 -22 9 C-23.32 9 -24.64 9 -26 9 C-25.67 7.68 -25.34 6.36 -25 5 C-16.69087069 3.18048263 -8.38136293 1.4539099 0 0 Z " fill="#4B9CC8" transform="translate(110,49)"/>
<path d="M0 0 C1.65 0 3.3 0 5 0 C5.12086218 6.43255401 4.82351864 12.61773055 4 19 C-0.83256305 18.58578031 -2.82679218 16.53586014 -6 13 C-6.33 15.64 -6.66 18.28 -7 21 C-8.65 21.33 -10.3 21.66 -12 22 C-12.02703562 19.41659616 -12.04685611 16.83347692 -12.0625 14.25 C-12.07087891 13.52039062 -12.07925781 12.79078125 -12.08789062 12.0390625 C-12.10391684 8.51329442 -11.95292713 5.38965084 -11 2 C-6.10968128 2.85472385 -3.60997932 5.73713408 0 9 C0 6.03 0 3.06 0 0 Z " fill="#E5EAED" transform="translate(39,40)"/>
<path d="M0 0 C0.66 0.33 1.32 0.66 2 1 C1.21496094 1.66644531 0.42992187 2.33289063 -0.37890625 3.01953125 C-6.5981542 8.43252536 -11.44050526 13.42141911 -15.40234375 20.78515625 C-17.37973445 23.52642893 -18.75733142 24.14463139 -22 25 C-23.65 25 -25.3 25 -27 25 C-27 32.26 -27 39.52 -27 47 C-28.485 47.495 -28.485 47.495 -30 48 C-29.99476318 48.72590332 -29.98952637 49.45180664 -29.98413086 50.19970703 C-29.96326503 53.50812912 -29.95030931 56.81653731 -29.9375 60.125 C-29.92912109 61.26710937 -29.92074219 62.40921875 -29.91210938 63.5859375 C-29.90888672 64.69453125 -29.90566406 65.803125 -29.90234375 66.9453125 C-29.89710693 67.96125488 -29.89187012 68.97719727 -29.88647461 70.02392578 C-30.00347691 73.09114726 -30.43223583 75.98633134 -31 79 C-30.38479492 78.87359131 -29.76958984 78.74718262 -29.13574219 78.61694336 C-26.34223092 78.04817772 -23.54623446 77.49271562 -20.75 76.9375 C-19.78191406 76.73833984 -18.81382813 76.53917969 -17.81640625 76.33398438 C-16.88183594 76.15029297 -15.94726562 75.96660156 -14.984375 75.77734375 C-14.12553711 75.60452881 -13.26669922 75.43171387 -12.38183594 75.25366211 C-9.94790649 74.99445212 -8.31101537 75.24915391 -6 76 C-6.66 76 -7.32 76 -8 76 C-6.35 78.31 -4.7 80.62 -3 83 C-5.46800047 81.84826645 -7.04783565 80.95216435 -9 79 C-13.79548871 78.60853153 -17.9106386 79.30954831 -22.49609375 80.5625 C-26.02662269 81.17937869 -29.41728215 81.06027706 -33 81 C-32.9278125 79.70707031 -32.855625 78.41414063 -32.78125 77.08203125 C-32.29801498 68.11888452 -31.87997068 59.21644234 -32.0625 50.23828125 C-32 48 -32 48 -31 47 C-30.80902619 45.39167168 -30.67664271 43.77628894 -30.5703125 42.16015625 C-30.49683594 41.17982422 -30.42335938 40.19949219 -30.34765625 39.18945312 C-30.19953394 37.10924423 -30.05887523 35.02849008 -29.92578125 32.94726562 C-29.84972656 31.96564453 -29.77367187 30.98402344 -29.6953125 29.97265625 C-29.6027417 28.61539429 -29.6027417 28.61539429 -29.50830078 27.23071289 C-29 25 -29 25 -26 23 C-23.95703125 22.5859375 -23.95703125 22.5859375 -21.8125 22.375 C-20.554375 22.25125 -19.29625 22.1275 -18 22 C-17.79375 21.34 -17.5875 20.68 -17.375 20 C-14.02311777 12.68680241 -7.29729504 3.64864752 0 0 Z " fill="#929292" transform="translate(33,16)"/>
<path d="M0 0 C0.33 0.33 0.66 0.66 1 1 C0.85591524 2.58787288 0.65938429 4.1711181 0.4375 5.75 C-0.02062053 9.74710163 -0.04199511 12.39647921 2 16 C0.35 16 -1.3 16 -3 16 C-3.66 14.35 -4.32 12.7 -5 11 C-6.32 11 -7.64 11 -9 11 C-9 12.98 -9 14.96 -9 17 C-10.32 17.33 -11.64 17.66 -13 18 C-13.02721176 16.10424749 -13.04649136 14.20838021 -13.0625 12.3125 C-13.07410156 11.25675781 -13.08570313 10.20101562 -13.09765625 9.11328125 C-13.00865425 6.27589738 -12.64939838 3.7561081 -12 1 C-8.00681626 -0.33106125 -4.16255487 -0.13647721 0 0 Z " fill="#4185AD" transform="translate(77,57)"/>
<path d="M0 0 C0.85335937 -0.00773437 1.70671875 -0.01546875 2.5859375 -0.0234375 C3.400625 -0.02085938 4.2153125 -0.01828125 5.0546875 -0.015625 C5.78929199 -0.01336914 6.52389648 -0.01111328 7.28076172 -0.00878906 C9.125 0.25 9.125 0.25 11.125 2.25 C7.21607603 3.21603396 3.30571319 4.17600479 -0.60595703 5.13085938 C-1.93088956 5.4551234 -3.25544838 5.78091904 -4.57958984 6.10839844 C-12.97002518 8.18215274 -21.32387807 9.98072407 -29.875 11.25 C-21.47161439 2.08267024 -12.0724311 -0.11247607 0 0 Z " fill="#BF5E3B" transform="translate(65.875,20.75)"/>
<path d="M0 0 C-1.56186718 4.21704138 -4.55477218 6.2578799 -8 9 C-8.495 9.61875 -8.99 10.2375 -9.5 10.875 C-11 12 -11 12 -13.6875 12 C-17.90676227 10.72626045 -21.57269498 8.79229673 -25 6 C-25 5.34 -25 4.68 -25 4 C-21.96050698 3.32315702 -18.91810835 2.66038128 -15.875 2 C-15.0190625 1.80921875 -14.163125 1.6184375 -13.28125 1.421875 C-8.77267206 0.45079667 -4.64354396 -0.24359575 0 0 Z " fill="#469ACA" transform="translate(56,81)"/>
<path d="M0 0 C0.33 0.99 0.66 1.98 1 3 C0.01 3.495 0.01 3.495 -1 4 C-1 5.65 -1 7.3 -1 9 C-0.67 7.68 -0.34 6.36 0 5 C0.99 5 1.98 5 3 5 C3 10.94 3 16.88 3 23 C3.66 23.33 4.32 23.66 5 24 C4.01 24 3.02 24 2 24 C1.67 22.68 1.34 21.36 1 20 C0.67 22.64 0.34 25.28 0 28 C1.98 28 3.96 28 6 28 C2.91190305 29.76462683 1.76687864 30 -2 30 C-2.33 26.7 -2.66 23.4 -3 20 C-3.33 20 -3.66 20 -4 20 C-4.19620767 17.93831015 -4.38160753 15.87559002 -4.5625 13.8125 C-4.66691406 12.66394531 -4.77132813 11.51539062 -4.87890625 10.33203125 C-4.98859985 7.31368801 -4.74002389 4.91076064 -4 2 C-2.68 2 -1.36 2 0 2 C0 1.34 0 0.68 0 0 Z " fill="#091017" transform="translate(7,62)"/>
<path d="M0 0 C0 1.32 0 2.64 0 4 C-1.32 4 -2.64 4 -4 4 C-4.33 9.28 -4.66 14.56 -5 20 C-6.65 20 -8.3 20 -10 20 C-10.027193 18.41676312 -10.04648306 16.83338938 -10.0625 15.25 C-10.07410156 14.36828125 -10.08570313 13.4865625 -10.09765625 12.578125 C-10.00826198 10.2181162 -9.66912821 8.25501476 -9 6 C-10.32 6 -11.64 6 -13 6 C-13 4.68 -13 3.36 -13 2 C-8.49646738 0.24252386 -4.82360189 -0.19294408 0 0 Z " fill="#EFF0EF" transform="translate(59,37)"/>
<path d="M0 0 C1.58294782 -0.05437607 3.16644256 -0.09296271 4.75 -0.125 C6.07257812 -0.15980469 6.07257812 -0.15980469 7.421875 -0.1953125 C10.1135858 0.00860498 11.69904974 0.63448279 14 2 C14 3.65 14 5.3 14 7 C13.34 6.34 12.68 5.68 12 5 C11.01 6.485 11.01 6.485 10 8 C3.66720977 9.08341014 -4.48545291 8.30872825 -10 5 C-10 3.68 -10 2.36 -10 1 C-9.46375 1.185625 -8.9275 1.37125 -8.375 1.5625 C-5.38009386 2.11419324 -2.96254171 1.60597444 0 1 C0 0.67 0 0.34 0 0 Z " fill="#2F3234" transform="translate(56,100)"/>
<path d="M0 0 C0 0.66 0 1.32 0 2 C-1.74681293 2.98484108 -3.4975851 3.96266187 -5.25 4.9375 C-6.22453125 5.48277344 -7.1990625 6.02804688 -8.203125 6.58984375 C-12.00547834 8.50695207 -15.08997601 9.12792874 -19.328125 9.09765625 C-20.12734375 9.09443359 -20.9265625 9.09121094 -21.75 9.08789062 C-22.575 9.07951172 -23.4 9.07113281 -24.25 9.0625 C-25.09046875 9.05798828 -25.9309375 9.05347656 -26.796875 9.04882812 C-28.86461401 9.03707961 -30.93231624 9.01914522 -33 9 C-30.39668433 7.26445622 -28.60192714 6.42617374 -25.6875 5.5 C-24.88699219 5.24347656 -24.08648437 4.98695312 -23.26171875 4.72265625 C-22.14216797 4.36494141 -22.14216797 4.36494141 -21 4 C-19.515 3.4740625 -19.515 3.4740625 -18 2.9375 C-12.02046959 1.06889675 -6.30770268 -0.32347193 0 0 Z " fill="#090606" transform="translate(86,89)"/>
<path d="M0 0 C-0.66 1.32 -1.32 2.64 -2 4 C-3.65 4 -5.3 4 -7 4 C-7 4.99 -7 5.98 -7 7 C-5.35 7 -3.7 7 -2 7 C-2.66 8.32 -3.32 9.64 -4 11 C-5.32 11 -6.64 11 -8 11 C-8 11.99 -8 12.98 -8 14 C-6.35 14 -4.7 14 -3 14 C-3.66 15.32 -4.32 16.64 -5 18 C-7.31 18 -9.62 18 -12 18 C-12 12.72 -12 7.44 -12 2 C-10.7625 1.67 -9.525 1.34 -8.25 1 C-7.55390625 0.814375 -6.8578125 0.62875 -6.140625 0.4375 C-4 0 -4 0 0 0 Z " fill="#5B9DC2" transform="translate(22,67)"/>
<path d="M0 0 C3.3 0 6.6 0 10 0 C9.67 5.94 9.34 11.88 9 18 C8.01 18 7.02 18 6 18 C6 19.98 6 21.96 6 24 C5.67 24 5.34 24 5 24 C4.34 20.04 3.68 16.08 3 12 C0.03 11.505 0.03 11.505 -3 11 C-3 10.34 -3 9.68 -3 9 C-1.865625 8.54625 -0.73125 8.0925 0.4375 7.625 C4.04721692 6.42904194 4.04721692 6.42904194 5 4 C4.34 4 3.68 4 3 4 C3 3.34 3 2.68 3 2 C2.01 2 1.02 2 0 2 C0 1.34 0 0.68 0 0 Z " fill="#0E0D10" transform="translate(105,46)"/>
<path d="M0 0 C1.75 1.5625 1.75 1.5625 3 3 C2.25 4.9375 2.25 4.9375 1 7 C-1.125 7.75 -1.125 7.75 -3 8 C-3 7.34 -3 6.68 -3 6 C-3.66 6 -4.32 6 -5 6 C-4.34 7.32 -3.68 8.64 -3 10 C-5.66666667 11.33333333 -8.33333333 12.66666667 -11 14 C-11.6875 11.25 -11.6875 11.25 -12 8 C-10.5625 5.625 -10.5625 5.625 -9 4 C-9.99 3.01 -10.98 2.02 -12 1 C-3.75430844 -1.33627928 -3.75430844 -1.33627928 0 0 Z " fill="#242020" transform="translate(96,87)"/>
<path d="M0 0 C1.65 0 3.3 0 5 0 C4.67 4.62 4.34 9.24 4 14 C7.3 13.67 10.6 13.34 14 13 C12 17 12 17 10.1953125 17.828125 C9.51210937 17.96734375 8.82890625 18.1065625 8.125 18.25 C7.44695312 18.39953125 6.76890625 18.5490625 6.0703125 18.703125 C4 19 4 19 0 19 C0 12.73 0 6.46 0 0 Z " fill="#F3F3F3" transform="translate(87,31)"/>
<path d="M0 0 C0.99 0 1.98 0 3 0 C3.33 0.66 3.66 1.32 4 2 C5.32 2 6.64 2 8 2 C10.00401011 2.30830925 12.00511766 2.63729412 14 3 C13.690625 4.423125 13.690625 4.423125 13.375 5.875 C13.25125 6.90625 13.1275 7.9375 13 9 C13.66 9.66 14.32 10.32 15 11 C11.87709365 10.51421457 9.00419641 10.0013988 6 9 C4.52034074 8.85426942 3.03596157 8.75336732 1.55078125 8.68359375 C0.70322266 8.64169922 -0.14433594 8.59980469 -1.01757812 8.55664062 C-1.89865234 8.51732422 -2.77972656 8.47800781 -3.6875 8.4375 C-4.58017578 8.39431641 -5.47285156 8.35113281 -6.39257812 8.30664062 C-8.59490108 8.20064647 -10.79733473 8.09857949 -13 8 C-9.38409988 6.02831107 -6.89104342 5.78497732 -2.75 5.875 C-1.67234375 5.89304687 -0.5946875 5.91109375 0.515625 5.9296875 C1.74539062 5.96449219 1.74539062 5.96449219 3 6 C2.01 5.67 1.02 5.34 0 5 C0 3.35 0 1.7 0 0 Z " fill="#496579" transform="translate(64,11)"/>
<path d="M0 0 C-3.49812879 4.34475039 -7.32737564 5.38541773 -12.5 6.8125 C-13.25925781 7.04130859 -14.01851562 7.27011719 -14.80078125 7.50585938 C-18.66101438 8.61119758 -21.0834023 9.23730867 -25 8 C-23.82879034 4.48637102 -23.14247044 3.84088615 -20 2 C-16.7578125 1.26953125 -16.7578125 1.26953125 -13.125 0.8125 C-11.93132813 0.65394531 -10.73765625 0.49539062 -9.5078125 0.33203125 C-6.31000909 0.02934384 -3.20911593 -0.06378977 0 0 Z " fill="#D69050" transform="translate(69,90)"/>
<path d="M0 0 C0 0.99 0 1.98 0 3 C0.99 3.33 1.98 3.66 3 4 C2.01 5.485 2.01 5.485 1 7 C-2.625 7.6875 -2.625 7.6875 -6 8 C-6 9.98 -6 11.96 -6 14 C-7.32 14 -8.64 14 -10 14 C-10 9.71 -10 5.42 -10 1 C-3.375 0 -3.375 0 0 0 Z " fill="#66A4C7" transform="translate(45,66)"/>
<path d="M0 0 C-0.96355353 15.74487472 -0.96355353 15.74487472 -2 23 C-2.66 23 -3.32 23 -4 23 C-4.03738281 23.83144531 -4.07476562 24.66289063 -4.11328125 25.51953125 C-4.17902344 26.60621094 -4.24476562 27.69289063 -4.3125 28.8125 C-4.37050781 29.89144531 -4.42851563 30.97039062 -4.48828125 32.08203125 C-5 35 -5 35 -6.21875 36.875 C-8.64286225 38.40601826 -10.34478842 38.298255 -13.1875 38.1875 C-14.08855469 38.16042969 -14.98960938 38.13335937 -15.91796875 38.10546875 C-16.60503906 38.07066406 -17.29210937 38.03585938 -18 38 C-15.09907498 36.06604999 -14.10325263 35.69868059 -10.8125 35.375 C-9.554375 35.25125 -8.29625 35.1275 -7 35 C-7.01160156 34.41992188 -7.02320312 33.83984375 -7.03515625 33.2421875 C-7.08762174 28.7001754 -6.91751063 24.47286431 -6 20 C-5.01 20 -4.02 20 -3 20 C-3.01160156 19.3709375 -3.02320312 18.741875 -3.03515625 18.09375 C-3.09286873 12.61930912 -2.80228473 7.41542194 -2 2 C-6.455 2.495 -6.455 2.495 -11 3 C-7.75987532 -0.24012468 -4.46544827 0 0 0 Z " fill="#B2563A" transform="translate(117,44)"/>
<path d="M0 0 C-0.33 0.99 -0.66 1.98 -1 3 C-1.99 3 -2.98 3 -4 3 C-4.33 7.62 -4.66 12.24 -5 17 C-6.32 17 -7.64 17 -9 17 C-9 13.04 -9 9.08 -9 5 C-10.32 5 -11.64 5 -13 5 C-12.67 3.68 -12.34 2.36 -12 1 C-8.0186217 -0.3271261 -4.14954773 -0.06915913 0 0 Z " fill="#D8D8D8" transform="translate(97,53)"/>
<path d="M0 0 C0 1.98 0 3.96 0 6 C-0.99 6 -1.98 6 -3 6 C-3 5.01 -3 4.02 -3 3 C-3.55985596 3.12117188 -4.11971191 3.24234375 -4.6965332 3.3671875 C-7.23451635 3.91463176 -9.77348433 4.4573656 -12.3125 5 C-13.19357422 5.19078125 -14.07464844 5.3815625 -14.98242188 5.578125 C-15.82998047 5.75859375 -16.67753906 5.9390625 -17.55078125 6.125 C-18.33106689 6.29257813 -19.11135254 6.46015625 -19.9152832 6.6328125 C-22 7 -22 7 -25 7 C-24.67 5.68 -24.34 4.36 -24 3 C-20.94102269 2.2961526 -17.87743931 1.61487171 -14.8125 0.9375 C-13.94818359 0.73833984 -13.08386719 0.53917969 -12.19335938 0.33398438 C-4.25311176 -1.40009269 -4.25311176 -1.40009269 0 0 Z " fill="#E1E2E2" transform="translate(48,63)"/>
<path d="M0 0 C-0.33 6.6 -0.66 13.2 -1 20 C-2.65 20 -4.3 20 -6 20 C-6.0272616 17.95840905 -6.04651345 15.91671037 -6.0625 13.875 C-6.07410156 12.73804688 -6.08570313 11.60109375 -6.09765625 10.4296875 C-6.00465199 7.16337777 -5.75026984 4.18038913 -5 1 C-3 0 -3 0 0 0 Z " fill="#E6E6E6" transform="translate(66,35)"/>
<path d="M0 0 C0.33 0 0.66 0 1 0 C1 4.95 1 9.9 1 15 C2.65 14.34 4.3 13.68 6 13 C6 12.67 6 12.34 6 12 C11.94 11.505 11.94 11.505 18 11 C17.67 11.66 17.34 12.32 17 13 C17.66 13.66 18.32 14.32 19 15 C16.6263603 15.50734284 14.25142575 16.00602386 11.875 16.5 C10.87726562 16.71462891 10.87726562 16.71462891 9.859375 16.93359375 C5.83943578 17.7612283 2.10095101 18.15330658 -2 18 C-1.85805236 15.93722893 -1.71127784 13.87478969 -1.5625 11.8125 C-1.48128906 10.66394531 -1.40007812 9.51539062 -1.31640625 8.33203125 C-1.04596188 5.48401829 -0.62478253 2.78789518 0 0 Z " fill="#0C0E10" transform="translate(4,77)"/>
<path d="M0 0 C2 2 2 2 2.1953125 4.1640625 C2.17210938 4.97617187 2.14890625 5.78828125 2.125 6.625 C2.10695313 7.44226562 2.08890625 8.25953125 2.0703125 9.1015625 C2.03550781 10.04128906 2.03550781 10.04128906 2 11 C4.98613386 11.75929472 7.97514219 12.4118332 11 13 C11 13.33 11 13.66 11 14 C5.555 14.495 5.555 14.495 0 15 C-0.33 20.61 -0.66 26.22 -1 32 C-3 30 -3 30 -3.1953125 26.9609375 C-3.16050781 25.18589844 -3.16050781 25.18589844 -3.125 23.375 C-3.10695312 22.18648437 -3.08890625 20.99796875 -3.0703125 19.7734375 C-3.03550781 18.40058594 -3.03550781 18.40058594 -3 17 C-3.66 16.67 -4.32 16.34 -5 16 C-5.40729228 13.67843403 -5.74438677 11.3431213 -6 9 C-5.67 9.99 -5.34 10.98 -5 12 C-3.35 12 -1.7 12 0 12 C0 8.04 0 4.08 0 0 Z " fill="#252A2D" transform="translate(65,43)"/>
<path d="M0 0 C0.99 0.66 1.98 1.32 3 2 C1.88882813 2.03738281 0.77765625 2.07476563 -0.3671875 2.11328125 C-11.43159144 2.56750546 -20.80314129 3.33227744 -30 10 C-30.66 10 -31.32 10 -32 10 C-32.33 9.01 -32.66 8.02 -33 7 C-22.09872066 0.02887194 -12.80739775 -1.42866332 0 0 Z " fill="#101013" transform="translate(70,19)"/>
<path d="M0 0 C0.99 0 1.98 0 3 0 C3 0.66 3 1.32 3 2 C4.65 1.67 6.3 1.34 8 1 C8.66 2.65 9.32 4.3 10 6 C8.71349294 6.69710731 7.42059335 7.38242876 6.125 8.0625 C5.40570313 8.44535156 4.68640625 8.82820313 3.9453125 9.22265625 C3.30335937 9.47917969 2.66140625 9.73570313 2 10 C1.34 9.67 0.68 9.34 0 9 C-0.33 9.33 -0.66 9.66 -1 10 C-1.66 10 -2.32 10 -3 10 C-3.75 7.75 -3.75 7.75 -4 5 C-2.0625 2.75 -2.0625 2.75 0 1 C0 0.67 0 0.34 0 0 Z " fill="#131516" transform="translate(34,15)"/>
<path d="M0 0 C0 1.32 0 2.64 0 4 C-2.04111542 4.48150942 -4.08291932 4.96010083 -6.125 5.4375 C-7.26195313 5.70433594 -8.39890625 5.97117187 -9.5703125 6.24609375 C-12.70461304 6.9350687 -15.83017726 7.50381194 -19 8 C-19.33 6.35 -19.66 4.7 -20 3 C-18.96939453 2.92652344 -18.96939453 2.92652344 -17.91796875 2.8515625 C-16.56638672 2.73941406 -16.56638672 2.73941406 -15.1875 2.625 C-14.29417969 2.55539063 -13.40085937 2.48578125 -12.48046875 2.4140625 C-7.7363501 1.62213088 -5.23360868 -0.19749467 0 0 Z " fill="#572E20" transform="translate(85,75)"/>
<path d="M0 0 C0.33 1.98 0.66 3.96 1 6 C3.97 6.495 3.97 6.495 7 7 C7 7.66 7 8.32 7 9 C1.89665983 10.905247 -2.46342706 12.42589023 -8 12 C-8 11.01 -8 10.02 -8 9 C-6.68 9 -5.36 9 -4 9 C-3.67 8.01 -3.34 7.02 -3 6 C-4.32 5.67 -5.64 5.34 -7 5 C-7 4.01 -7 3.02 -7 2 C-1.125 0 -1.125 0 0 0 Z " fill="#080E14" transform="translate(22,69)"/>
<path d="M0 0 C1.32 0 2.64 0 4 0 C4 4.95 4 9.9 4 15 C2.35 15.33 0.7 15.66 -1 16 C-1.02712153 14.083412 -1.04645097 12.1667127 -1.0625 10.25 C-1.07410156 9.18265625 -1.08570312 8.1153125 -1.09765625 7.015625 C-1.01510087 4.46631499 -0.74617558 2.42066409 0 0 Z " fill="#ECEDED" transform="translate(21,47)"/>
<path d="M0 0 C0 1.32 0 2.64 0 4 C0.99 4 1.98 4 3 4 C3.33 3.01 3.66 2.02 4 1 C4 1.99 4 2.98 4 4 C4.62648438 4.04898437 5.25296875 4.09796875 5.8984375 4.1484375 C6.71570313 4.22320313 7.53296875 4.29796875 8.375 4.375 C9.59316406 4.47941406 9.59316406 4.47941406 10.8359375 4.5859375 C13 5 13 5 15 7 C13.9275 6.835 12.855 6.67 11.75 6.5 C4.2523861 5.5661335 -3.59634471 5.35474327 -11 7 C-10.67 6.34 -10.34 5.68 -10 5 C-9.34 5 -8.68 5 -8 5 C-8.33 3.35 -8.66 1.7 -9 0 C-3.375 -1.125 -3.375 -1.125 0 0 Z " fill="#182026" transform="translate(60,12)"/>
<path d="M0 0 C0.66 0.33 1.32 0.66 2 1 C2 2.32 2 3.64 2 5 C1.01 5.495 1.01 5.495 0 6 C0.33 6.66 0.66 7.32 1 8 C0.07058594 8.42410156 -0.85882813 8.84820312 -1.81640625 9.28515625 C-8.94865655 12.63556116 -14.94108673 15.74292306 -20 22 C-20.66 21.67 -21.32 21.34 -22 21 C-16.23521293 14.7339271 -10.52518745 10.00610188 -3 6 C-3.66 4.68 -4.32 3.36 -5 2 C-2.625 0.9375 -2.625 0.9375 0 0 Z " fill="#2C5F83" transform="translate(50,12)"/>
<path d="M0 0 C0 1.65 0 3.3 0 5 C-1.32 5.33 -2.64 5.66 -4 6 C-4 5.01 -4 4.02 -4 3 C-5.65 3.33 -7.3 3.66 -9 4 C-9.33 5.32 -9.66 6.64 -10 8 C-10.99 8 -11.98 8 -13 8 C-13.25 5.6875 -13.25 5.6875 -13 3 C-9.31448905 -0.82201136 -4.97016831 -1.65672277 0 0 Z " fill="#E6E8E9" transform="translate(63,60)"/>
<path d="M0 0 C1 1 1 1 1.0625 3.5625 C1.041875 4.366875 1.02125 5.17125 1 6 C-0.32 6 -1.64 6 -3 6 C-3 5.01 -3 4.02 -3 3 C-4.65 3.33 -6.3 3.66 -8 4 C-8.33 5.32 -8.66 6.64 -9 8 C-9.99 8 -10.98 8 -12 8 C-12 5.69 -12 3.38 -12 1 C-8.00681626 -0.33106125 -4.16255487 -0.13647721 0 0 Z " fill="#DDDFE0" transform="translate(77,57)"/>
<path d="M0 0 C0 5.28 0 10.56 0 16 C-1.65 16 -3.3 16 -5 16 C-4.88658509 13.51979503 -4.75985314 11.04155031 -4.625 8.5625 C-4.5940625 7.85544922 -4.563125 7.14839844 -4.53125 6.41992188 C-4.42719371 4.60760812 -4.22080108 2.80182012 -4 1 C-2 0 -2 0 0 0 Z " fill="#F2F3F3" transform="translate(18,48)"/>
<path d="M0 0 C0 1.32 0 2.64 0 4 C-1.32 4 -2.64 4 -4 4 C-4 6.64 -4 9.28 -4 12 C-4.33 12 -4.66 12 -5 12 C-5 9.69 -5 7.38 -5 5 C-7.64 5.33 -10.28 5.66 -13 6 C-13 4.68 -13 3.36 -13 2 C-8.49646738 0.24252386 -4.82360189 -0.19294408 0 0 Z " fill="#67A4C5" transform="translate(59,37)"/>
<path d="M0 0 C0 0.66 0 1.32 0 2 C-8.70878683 4.96225888 -15.86728659 6.71471354 -25 5 C-25 4.67 -25 4.34 -25 4 C-16.69932377 1.96011202 -8.59366556 0 0 0 Z " fill="#BE5A3C" transform="translate(106,81)"/>
<path d="M0 0 C-0.66 0 -1.32 0 -2 0 C-0.35 2.31 1.3 4.62 3 7 C0.53199953 5.84826645 -1.04783565 4.95216435 -3 3 C-8.62241893 2.51109401 -13.82523291 3.62650727 -19.328125 4.7578125 C-22 5 -22 5 -25 3 C-21.58604938 2.29852167 -18.16853031 1.61627764 -14.75 0.9375 C-13.78191406 0.73833984 -12.81382813 0.53917969 -11.81640625 0.33398438 C-10.88183594 0.15029297 -9.94726562 -0.03339844 -8.984375 -0.22265625 C-8.12553711 -0.39547119 -7.26669922 -0.56828613 -6.38183594 -0.74633789 C-3.94790649 -1.00554788 -2.31101537 -0.75084609 0 0 Z " fill="#8A8A8A" transform="translate(27,92)"/>
<path d="M0 0 C-3.25115423 3.25115423 -7.59918586 3.90084019 -11.9375 5.1875 C-12.85724609 5.47302734 -13.77699219 5.75855469 -14.72460938 6.05273438 C-15.60826172 6.31763672 -16.49191406 6.58253906 -17.40234375 6.85546875 C-18.61651978 7.22128052 -18.61651978 7.22128052 -19.85522461 7.59448242 C-22 8 -22 8 -25 7 C-17.67634375 2.06078997 -8.8503684 -0.32900998 0 0 Z " fill="#3A7EA7" transform="translate(57,30)"/>
<path d="M0 0 C0.33 0 0.66 0 1 0 C1.07654536 4.51617599 1.10228696 8.59085217 0 13 C1.32 13.33 2.64 13.66 4 14 C3.278125 13.95875 2.55625 13.9175 1.8125 13.875 C-1.32437047 14.01441647 -3.28311133 14.41514827 -6 16 C-6.89386164 18.54775306 -6.89386164 18.54775306 -7 21 C-7.33 21 -7.66 21 -8 21 C-8 19.02 -8 17.04 -8 15 C-6.68 14.67 -5.36 14.34 -4 14 C-4 12.02 -4 10.04 -4 8 C-2.68 7.67 -1.36 7.34 0 7 C0 4.69 0 2.38 0 0 Z " fill="#384F5F" transform="translate(13,51)"/>
<path d="M0 0 C0.02689216 1.47906892 0.04634621 2.95827483 0.0625 4.4375 C0.07410156 5.26121094 0.08570313 6.08492188 0.09765625 6.93359375 C0 9 0 9 -1 10 C-2.66617115 10.04063832 -4.33388095 10.042721 -6 10 C-5.67 7.03 -5.34 4.06 -5 1 C-2 0 -2 0 0 0 Z " fill="#111920" transform="translate(59,63)"/>
<path d="M0 0 C0.66 0 1.32 0 2 0 C4.6875 2.8125 4.6875 2.8125 7 6 C5.86280581 9.41158256 4.95657056 10.11854601 2 12 C1.34 12 0.68 12 0 12 C0 8.04 0 4.08 0 0 Z " fill="#4290BE" transform="translate(97,28)"/>
<path d="M0 0 C0 3.96 0 7.92 0 12 C0.66 12.33 1.32 12.66 2 13 C1.01 13 0.02 13 -1 13 C-1.66 10.36 -2.32 7.72 -3 5 C-5.97 4.505 -5.97 4.505 -9 4 C-9 3.01 -9 2.02 -9 1 C-5.94152152 0.45627049 -3.11227195 0 0 0 Z " fill="#1C2B35" transform="translate(35,68)"/>
<path d="M0 0 C0.99 0 1.98 0 3 0 C3 4.29 3 8.58 3 13 C1.68 13.33 0.36 13.66 -1 14 C-2.4552777 11.0894446 -1.63516661 9.04150948 -1.0625 5.875 C-0.77052734 4.23144531 -0.77052734 4.23144531 -0.47265625 2.5546875 C-0.31667969 1.71164063 -0.16070312 0.86859375 0 0 Z " fill="#020305" transform="translate(10,45)"/>
<path d="M0 0 C0.33 0 0.66 0 1 0 C1.12036664 5.77759884 0.8320582 11.27959989 0 17 C1.98 17 3.96 17 6 17 C2.91190305 18.76462683 1.76687864 19 -2 19 C-2.0991667 12.90675749 -2.17328971 6.99681407 -1 1 C-0.67 0.67 -0.34 0.34 0 0 Z " fill="#2C5F81" transform="translate(7,73)"/>
<path d="M0 0 C0.66 0 1.32 0 2 0 C2 1.32 2 2.64 2 4 C2.99 4 3.98 4 5 4 C5 5.65 5 7.3 5 9 C5.66 9.33 6.32 9.66 7 10 C6.34 10 5.68 10 5 10 C5 10.99 5 11.98 5 13 C3.68 12.67 2.36 12.34 1 12 C0.67 8.04 0.34 4.08 0 0 Z " fill="#4D91B7" transform="translate(48,64)"/>
<path d="M0 0 C3.6875 0.875 3.6875 0.875 7 2 C4.40019136 5.32957948 1.88935445 5.61761712 -2.1875 6.1875 C-3.27417969 6.34605469 -4.36085937 6.50460938 -5.48046875 6.66796875 C-6.31191406 6.77753906 -7.14335938 6.88710938 -8 7 C-5.42215154 4.35247996 -3.08351902 2.05567935 0 0 Z " fill="#BC5339" transform="translate(44,25)"/>
<path d="M0 0 C0.33 0.66 0.66 1.32 1 2 C1.99 2 2.98 2 4 2 C4 5.3 4 8.6 4 12 C2.68 12 1.36 12 0 12 C0 8.04 0 4.08 0 0 Z " fill="#4D9AC4" transform="translate(88,58)"/>
<path d="M0 0 C4.06753035 0.49303398 6.90520309 1.94239815 10.3515625 4.01171875 C12.18732107 5.11230387 14.07088095 6.07402286 16 7 C12.64931881 8.23446149 10.6317141 8.28859558 7.375 6.80078125 C4.81044245 5.29628939 2.34455561 3.8302361 0 2 C0 1.34 0 0.68 0 0 Z " fill="#2E638A" transform="translate(31,85)"/>
<path d="M0 0 C1.46373047 0.02707031 1.46373047 0.02707031 2.95703125 0.0546875 C3.69308594 0.07789062 4.42914063 0.10109375 5.1875 0.125 C4.8575 0.785 4.5275 1.445 4.1875 2.125 C-1.32921831 3.64750148 -7.09312226 4.43415555 -12.8125 4.125 C-9.04213149 0.35463149 -5.18226941 -0.12487396 0 0 Z " fill="#D59C79" transform="translate(82.8125,85.875)"/>
<path d="M0 0 C1.01513672 -0.01836914 1.01513672 -0.01836914 2.05078125 -0.03710938 C5.76357044 -0.04809396 7.32983076 0.07405384 10.5 2.1875 C-0.39 2.6825 -0.39 2.6825 -11.5 3.1875 C-9.38377075 -1.0449585 -4.15848186 0.00396046 0 0 Z " fill="#070709" transform="translate(62.5,18.8125)"/>
<path d="M0 0 C-0.33 4.95 -0.66 9.9 -1 15 C-1.66 14.67 -2.32 14.34 -3 14 C-2.67 10.04 -2.34 6.08 -2 2 C-6.455 2.495 -6.455 2.495 -11 3 C-7.75987532 -0.24012468 -4.46544827 0 0 0 Z " fill="#346C90" transform="translate(117,44)"/>
<path d="M0 0 C0 0.99 0 1.98 0 3 C-2.39763185 5.39763185 -3.33273498 5.34280586 -6.625 5.625 C-7.44226563 5.69976562 -8.25953125 5.77453125 -9.1015625 5.8515625 C-9.72804688 5.90054688 -10.35453125 5.94953125 -11 6 C-10.67 4.68 -10.34 3.36 -10 2 C-6.7 1.34 -3.4 0.68 0 0 Z " fill="#DFDFDF" transform="translate(110,49)"/>
<path d="M0 0 C-0.33 1.32 -0.66 2.64 -1 4 C-4.63 4.33 -8.26 4.66 -12 5 C-11.67 3.68 -11.34 2.36 -11 1 C-10.01 1 -9.02 1 -8 1 C-6.989375 0.649375 -5.97875 0.29875 -4.9375 -0.0625 C-2 -1 -2 -1 0 0 Z " fill="#734B30" transform="translate(98,73)"/>
<path d="M0 0 C0.33 0.99 0.66 1.98 1 3 C0.01 3.495 0.01 3.495 -1 4 C-0.34 4.66 0.32 5.32 1 6 C-2.63 6.66 -6.26 7.32 -10 8 C-9.34 6.35 -8.68 4.7 -8 3 C-5.36 2.67 -2.72 2.34 0 2 C0 1.34 0 0.68 0 0 Z " fill="#3F89B4" transform="translate(105,61)"/>
<path d="M0 0 C1.65 0 3.3 0 5 0 C5.33 6.27 5.66 12.54 6 19 C5.67 19 5.34 19 5 19 C3.67713754 14.03926578 3.91106803 9.08888488 4 4 C2.68 4 1.36 4 0 4 C0 2.68 0 1.36 0 0 Z " fill="#4B7186" transform="translate(21,43)"/>
<path d="M0 0 C-15.21495327 7.26168224 -15.21495327 7.26168224 -22 5 C-6.78504673 -2.26168224 -6.78504673 -2.26168224 0 0 Z " fill="#B29883" transform="translate(86,24)"/>
<path d="M0 0 C0.74958984 0.00451172 1.49917969 0.00902344 2.27148438 0.01367188 C4.11852383 0.02543646 5.96552213 0.04337135 7.8125 0.0625 C3.99634532 2.53295803 -0.03494248 2.50081912 -4.4375 2.6875 C-5.18257813 2.72617187 -5.92765625 2.76484375 -6.6953125 2.8046875 C-8.5256524 2.89855108 -10.35654143 2.98159718 -12.1875 3.0625 C-9.97894074 -1.35461851 -4.30476406 -0.04887505 0 0 Z " fill="#DE8547" transform="translate(69.1875,21.9375)"/>
<path d="M0 0 C-0.80050781 0.20496094 -1.60101563 0.40992188 -2.42578125 0.62109375 C-5.28514694 1.76403127 -5.28514694 1.76403127 -5.85546875 4.78515625 C-5.96503906 5.86667969 -6.07460937 6.94820312 -6.1875 8.0625 C-6.40239622 10.04851888 -6.66078618 12.03140015 -7 14 C-7.99 14.495 -7.99 14.495 -9 15 C-8.94014621 12.70759993 -8.85140973 10.41593794 -8.75 8.125 C-8.70359375 6.84882812 -8.6571875 5.57265625 -8.609375 4.2578125 C-8 1 -8 1 -6.09375 -0.46875 C-3.67910955 -1.08141997 -2.32397914 -0.82999255 0 0 Z " fill="#234B66" transform="translate(16,43)"/>
<path d="M0 0 C-0.7109375 1.953125 -0.7109375 1.953125 -2 4 C-4.1640625 4.609375 -4.1640625 4.609375 -6.625 4.75 C-7.44226563 4.80671875 -8.25953125 4.8634375 -9.1015625 4.921875 C-9.72804688 4.94765625 -10.35453125 4.9734375 -11 5 C-11 4.01 -11 3.02 -11 2 C-7.12315913 0.80712589 -4.08378077 0 0 0 Z " fill="#E7E7E7" transform="translate(22,67)"/>
<path d="M0 0 C2.31 0 4.62 0 7 0 C7 1.32 7 2.64 7 4 C4.36 4.33 1.72 4.66 -1 5 C-0.67 3.35 -0.34 1.7 0 0 Z " fill="#613926" transform="translate(78,75)"/>
<path d="M0 0 C0.66 0.33 1.32 0.66 2 1 C0.38405168 3.04119788 -1.2856382 5.04072937 -3 7 C-3.66 7 -4.32 7 -5 7 C-4.34 8.65 -3.68 10.3 -3 12 C-4.65 12 -6.3 12 -8 12 C-8 8.24111186 -7.049166 7.58681685 -4.5625 4.875 C-3.92441406 4.17117187 -3.28632813 3.46734375 -2.62890625 2.7421875 C-1.76410115 1.81724008 -0.89538137 0.89538137 0 0 Z " fill="#0C0C0C" transform="translate(29,21)"/>
<path d="M0 0 C2.475 0.99 2.475 0.99 5 2 C4.25 3.9375 4.25 3.9375 3 6 C0.875 6.75 0.875 6.75 -1 7 C-1 6.34 -1 5.68 -1 5 C-1.66 5 -2.32 5 -3 5 C-3 3 -3 3 -1.5 1.375 C-1.005 0.92125 -0.51 0.4675 0 0 Z " fill="#686868" transform="translate(94,88)"/>
<path d="M0 0 C0 0.99 0 1.98 0 3 C0.99 3.33 1.98 3.66 3 4 C2.01 5.485 2.01 5.485 1 7 C0.01 7 -0.98 7 -2 7 C-2 6.34 -2 5.68 -2 5 C-2.99 4.67 -3.98 4.34 -5 4 C-5 3.01 -5 2.02 -5 1 C-3 0 -3 0 0 0 Z " fill="#396177" transform="translate(45,66)"/>
<path d="M0 0 C0.99 0 1.98 0 3 0 C3.33 3.63 3.66 7.26 4 11 C3.01 11.495 3.01 11.495 2 12 C2 9.69 2 7.38 2 5 C1.34 5 0.68 5 0 5 C0 7.31 0 9.62 0 12 C-0.33 12 -0.66 12 -1 12 C-1.14285714 3.42857143 -1.14285714 3.42857143 0 0 Z " fill="#8AA9BA" transform="translate(68,34)"/>
<path d="M0 0 C-2.48262432 2.48262432 -4.61775287 3.07286975 -7.9375 4.1875 C-8.99839844 4.55230469 -10.05929688 4.91710937 -11.15234375 5.29296875 C-14 6 -14 6 -17 5 C-15.730447 4.35165346 -14.45930294 3.70642185 -13.1875 3.0625 C-12.47980469 2.70285156 -11.77210937 2.34320313 -11.04296875 1.97265625 C-7.2023748 0.14415167 -4.20923377 -0.09353853 0 0 Z " fill="#EFDECB" transform="translate(69,90)"/>
<path d="M0 0 C-0.33 0.66 -0.66 1.32 -1 2 C-0.34 2.66 0.32 3.32 1 4 C-1.31 4.33 -3.62 4.66 -6 5 C-6.33 4.34 -6.66 3.68 -7 3 C-9.52733235 2.34444881 -9.52733235 2.34444881 -12 2 C-12 1.67 -12 1.34 -12 1 C-7.95858806 0.36605303 -4.0934693 -0.12404452 0 0 Z " fill="#131F28" transform="translate(22,88)"/>
<path d="M0 0 C0.33 0 0.66 0 1 0 C1.24954005 1.43410368 1.47392642 2.87260072 1.6875 4.3125 C1.81511719 5.11300781 1.94273438 5.91351563 2.07421875 6.73828125 C2 9 2 9 0.84375 10.78125 C-1.62018574 12.40995329 -3.26013946 12.30155301 -6.1875 12.1875 C-7.08855469 12.16042969 -7.98960938 12.13335937 -8.91796875 12.10546875 C-9.60503906 12.07066406 -10.29210937 12.03585938 -11 12 C-8.09907498 10.06604999 -7.10325263 9.69868059 -3.8125 9.375 C-2.554375 9.25125 -1.29625 9.1275 0 9 C0 6.03 0 3.06 0 0 Z " fill="#9F4B33" transform="translate(110,70)"/>
<path d="M0 0 C0 1.32 0 2.64 0 4 C-2.31 4 -4.62 4 -7 4 C-7 2.68 -7 1.36 -7 0 C-3.98968256 -0.93423645 -3.13349732 -1.04449911 0 0 Z " fill="#696969" transform="translate(60,12)"/>
<path d="M0 0 C-2.48775874 2.48775874 -4.07275574 2.61866553 -7.5 3.25 C-8.96953125 3.53617188 -8.96953125 3.53617188 -10.46875 3.828125 C-11.72171875 3.91320313 -11.72171875 3.91320313 -13 4 C-13.66 3.34 -14.32 2.68 -15 2 C-9.92523206 0.73694665 -5.27203646 -0.27036084 0 0 Z " fill="#151113" transform="translate(54,29)"/>
<path d="M0 0 C0.33 0.66 0.66 1.32 1 2 C1.99 2.33 2.98 2.66 4 3 C-1.16044765 4.512545 -4.65998179 5.33500455 -10 4 C-6.77484237 2.26337666 -3.48670834 1.1094072 0 0 Z " fill="#311F19" transform="translate(79,21)"/>
<path d="M0 0 C1.58409994 0.11487748 3.16728963 0.24234508 4.75 0.375 C6.07257812 0.47941406 6.07257812 0.47941406 7.421875 0.5859375 C10 1 10 1 14 3 C10.37 3.33 6.74 3.66 3 4 C3 3.34 3 2.68 3 2 C2.01 2 1.02 2 0 2 C0 1.34 0 0.68 0 0 Z " fill="#0E0E0F" transform="translate(46,99)"/>
<path d="M0 0 C0.66 0.33 1.32 0.66 2 1 C2 2.32 2 3.64 2 5 C0.02 5.99 0.02 5.99 -2 7 C-2.99 5.35 -3.98 3.7 -5 2 C-2.625 0.9375 -2.625 0.9375 0 0 Z " fill="#5D5D5E" transform="translate(50,12)"/>
<path d="M0 0 C0 1.32 0 2.64 0 4 C-2.64 4.33 -5.28 4.66 -8 5 C-7.6875 3.0625 -7.6875 3.0625 -7 1 C-4 0 -4 0 0 0 Z " fill="#4894BE" transform="translate(82,32)"/>
<path d="M0 0 C0 0.66 0 1.32 0 2 C-1.26839526 2.50615298 -2.53983102 3.00469099 -3.8125 3.5 C-4.87404297 3.91765625 -4.87404297 3.91765625 -5.95703125 4.34375 C-8 5 -8 5 -11 5 C-10 2 -10 2 -8.3125 0.8125 C-5.45030907 -0.19313465 -3.01172092 -0.13689641 0 0 Z " fill="#180F0B" transform="translate(71,25)"/>
<path d="M0 0 C0.33 1.32 0.66 2.64 1 4 C1.99 4 2.98 4 4 4 C4 6.64 4 9.28 4 12 C3.01 12.33 2.02 12.66 1 13 C0.67 8.71 0.34 4.42 0 0 Z " fill="#2D2E30" transform="translate(2,69)"/>
<path d="M0 0 C1.65 0 3.3 0 5 0 C5 3.3 5 6.6 5 10 C4.67 10 4.34 10 4 10 C4 8.02 4 6.04 4 4 C2.68 4 1.36 4 0 4 C0 2.68 0 1.36 0 0 Z " fill="#6CA2BF" transform="translate(39,40)"/>
<path d="M0 0 C0 0.99 0 1.98 0 3 C0.66 3 1.32 3 2 3 C2 3.66 2 4.32 2 5 C0.02 5.33 -1.96 5.66 -4 6 C-4.33 4.35 -4.66 2.7 -5 1 C-2 0 -2 0 0 0 Z " fill="#6E6E6E" transform="translate(81,99)"/>
<path d="M0 0 C0.639375 0.2475 1.27875 0.495 1.9375 0.75 C2.2675 1.74 2.5975 2.73 2.9375 3.75 C2.6075 4.41 2.2775 5.07 1.9375 5.75 C-0.5 4.9375 -0.5 4.9375 -3.0625 3.75 C-3.3925 2.76 -3.7225 1.77 -4.0625 0.75 C-2.0625 -0.25 -2.0625 -0.25 0 0 Z " fill="#7B7B7B" transform="translate(37.0625,95.25)"/>
<path d="M0 0 C-1.485 2.475 -1.485 2.475 -3 5 C-4.32 4.34 -5.64 3.68 -7 3 C-6.67 2.01 -6.34 1.02 -6 0 C-3.50907189 -1.24546405 -2.58919267 -0.7767578 0 0 Z " fill="#707070" transform="translate(43,17)"/>
<path d="M0 0 C0.74958984 0.05220703 1.49917969 0.10441406 2.27148438 0.15820312 C4.11887082 0.28763784 5.96574371 0.42436518 7.8125 0.5625 C7.8125 0.8925 7.8125 1.2225 7.8125 1.5625 C5.39638467 1.78487877 2.9807283 1.99082339 0.5625 2.1875 C-0.11941406 2.25195312 -0.80132812 2.31640625 -1.50390625 2.3828125 C-5.3102049 2.67844735 -7.96559846 2.73811392 -11.1875 0.5625 C-7.35939179 -0.71353607 -3.95274893 -0.30033987 0 0 Z " fill="#27343E" transform="translate(59.1875,97.4375)"/>
<path d="M0 0 C0.66 0.33 1.32 0.66 2 1 C1.67 1.33 1.34 1.66 1 2 C2.32 2.66 3.64 3.32 5 4 C4.05125 4.309375 3.1025 4.61875 2.125 4.9375 C-0.86080408 5.87394742 -0.86080408 5.87394742 -3 7 C-5.125 6.0625 -5.125 6.0625 -7 5 C-5.824375 4.87625 -5.824375 4.87625 -4.625 4.75 C-1.85250896 4.27193661 -1.85250896 4.27193661 -0.6875 1.9375 C-0.460625 1.298125 -0.23375 0.65875 0 0 Z " fill="#262525" transform="translate(49,88)"/>
<path d="M0 0 C1.65 0 3.3 0 5 0 C5 3.3 5 6.6 5 10 C4.67 10 4.34 10 4 10 C4 7.69 4 5.38 4 3 C2.68 3.33 1.36 3.66 0 4 C0 2.68 0 1.36 0 0 Z " fill="#5B92B0" transform="translate(14,45)"/>
<path d="M0 0 C2.31 0 4.62 0 7 0 C7 1.32 7 2.64 7 4 C5.02 4 3.04 4 1 4 C0.67 2.68 0.34 1.36 0 0 Z " fill="#4697C4" transform="translate(52,37)"/>
<path d="M0 0 C1.32 0 2.64 0 4 0 C4 1.98 4 3.96 4 6 C3.01 6 2.02 6 1 6 C1 5.01 1 4.02 1 3 C0.34 3 -0.32 3 -1 3 C-0.67 2.01 -0.34 1.02 0 0 Z " fill="#F4F8F8" transform="translate(44,63)"/>
<path d="M0 0 C0.99 0 1.98 0 3 0 C3.33 0.66 3.66 1.32 4 2 C4.66 1.67 5.32 1.34 6 1 C6 2.32 6 3.64 6 5 C4.02 5 2.04 5 0 5 C0 3.35 0 1.7 0 0 Z " fill="#757576" transform="translate(64,11)"/>
<path d="M0 0 C2.97 0.495 2.97 0.495 6 1 C6 2.32 6 3.64 6 5 C3.03 4.505 3.03 4.505 0 4 C0 2.68 0 1.36 0 0 Z " fill="#7F7F7F" transform="translate(46,101)"/>
<path d="M0 0 C-0.33 1.65 -0.66 3.3 -1 5 C-1.33 4.01 -1.66 3.02 -2 2 C-2.66 2 -3.32 2 -4 2 C-4 2.99 -4 3.98 -4 5 C-5.32 5.33 -6.64 5.66 -8 6 C-8 4.68 -8 3.36 -8 2 C-5.09399739 0.74335022 -3.20395416 0 0 0 Z " fill="#6B442B" transform="translate(107,70)"/>
<path d="M0 0 C0 1.65 0 3.3 0 5 C-2.31 5 -4.62 5 -7 5 C-7 4.01 -7 3.02 -7 2 C-1.125 0 -1.125 0 0 0 Z " fill="#242C33" transform="translate(22,69)"/>
<path d="M0 0 C0.66 0 1.32 0 2 0 C2.33 1.32 2.66 2.64 3 4 C2.01 4 1.02 4 0 4 C0.33 4.99 0.66 5.98 1 7 C-0.32 6.34 -1.64 5.68 -3 5 C-3 4.34 -3 3.68 -3 3 C-2.34 3 -1.68 3 -1 3 C-0.67 2.01 -0.34 1.02 0 0 Z " fill="#656565" transform="translate(27,25)"/>
<path d="M0 0 C1.32 0.66 2.64 1.32 4 2 C3.01 2 2.02 2 1 2 C1.33 3.65 1.66 5.3 2 7 C1.01 7.33 0.02 7.66 -1 8 C-1.33 6.35 -1.66 4.7 -2 3 C-1.34 3 -0.68 3 0 3 C0 2.01 0 1.02 0 0 Z " fill="#353535" transform="translate(75,98)"/>
<path d="M0 0 C1.65 0 3.3 0 5 0 C5.33 1.32 5.66 2.64 6 4 C4.02 4 2.04 4 0 4 C0 2.68 0 1.36 0 0 Z " fill="#848584" transform="translate(59,103)"/>
<path d="M0 0 C-0.66 2.31 -1.32 4.62 -2 7 C-2.33 6.34 -2.66 5.68 -3 5 C-5.02463255 4.34786708 -5.02463255 4.34786708 -7 4 C-6.01 3.67 -5.02 3.34 -4 3 C-3.67 2.34 -3.34 1.68 -3 1 C-3.99 0.67 -4.98 0.34 -6 0 C-3 -1 -3 -1 0 0 Z " fill="#5B646B" transform="translate(100,52)"/>
<path d="M0 0 C-0.33 0.99 -0.66 1.98 -1 3 C-3.31 3.33 -5.62 3.66 -8 4 C-7.67 3.01 -7.34 2.02 -7 1 C-4 0 -4 0 0 0 Z " fill="#F9F9F9" transform="translate(97,53)"/>
<path d="M0 0 C1.65 0 3.3 0 5 0 C5 1.32 5 2.64 5 4 C3.35 4 1.7 4 0 4 C0 2.68 0 1.36 0 0 Z " fill="#7D7D7E" transform="translate(53,103)"/>
<path d="M0 0 C0.66 1.32 1.32 2.64 2 4 C0.35 4.66 -1.3 5.32 -3 6 C-3.33 4.35 -3.66 2.7 -4 1 C-2 0 -2 0 0 0 Z " fill="#7F7F7F" transform="translate(91,93)"/>
<path d="M0 0 C1.98 0 3.96 0 6 0 C6 0.66 6 1.32 6 2 C7.32 2.33 8.64 2.66 10 3 C7.69 3.33 5.38 3.66 3 4 C2.01 2.68 1.02 1.36 0 0 Z " fill="#30678A" transform="translate(16,80)"/>
<path d="M0 0 C0.66 0.33 1.32 0.66 2 1 C1.67 1.66 1.34 2.32 1 3 C0.64830932 4.32860925 0.31229724 5.66158328 0 7 C0 6.01 0 5.02 0 4 C-1.32 4 -2.64 4 -4 4 C-4 3.34 -4 2.68 -4 2 C-2.125 0.9375 -2.125 0.9375 0 0 Z " fill="#0E1014" transform="translate(81,95)"/>
<path d="M0 0 C0 1.32 0 2.64 0 4 C-1.32 4 -2.64 4 -4 4 C-4 3.34 -4 2.68 -4 2 C-4.99 1.67 -5.98 1.34 -7 1 C-2.25 0 -2.25 0 0 0 Z " fill="#BCBDBE" transform="translate(93,56)"/>
</svg>
